<?xml version="1.0" encoding="UTF-8"?><svg id="Layer_1" xmlns="http://www.w3.org/2000/svg" viewBox="0 0 1353.9 345.93"><defs><style>.cls-1{fill:#6400d7;}</style></defs><path class="cls-1" d="m47.78,209.14c0-59.83,36.64-100.59,92.36-100.59,47.11,0,79.27,31.41,83.76,74.04h-31.41c-1.5-20.94-14.21-47.86-52.35-47.86-45.25,0-60.95,38.51-60.95,74.41s15.7,74.41,60.95,74.41c38.51,0,50.85-26.55,52.35-49.36h31.41c-2.62,43.37-36.65,75.53-83.76,75.53-55.72,0-92.36-40.76-92.36-100.59Z"/><path class="cls-1" d="m239.5,255.51c0-43.75,32.16-55.71,81.51-64.69,32.53-5.98,47.49-9.72,47.49-28.42,0-14.96-8.23-28.05-39.64-28.05-36.27,0-46.74,10.85-48.61,38.52h-31.41c1.87-36.64,25.05-64.69,81.14-64.69,35.52,0,67.68,14.96,67.68,61.7v91.61c0,14.96,2.25,22.43,9.72,22.43,1.12,0,2.24,0,4.49-.37v20.94c-4.86,1.12-9.35,1.87-14.58,1.87-16.45,0-26.55-6.36-28.42-29.91h-.75c-12.34,20.57-34.03,33.28-65.81,33.28-38.52,0-62.82-22.06-62.82-54.22Zm65.81,28.05c35.9,0,63.19-16.08,63.19-52.72v-30.29c-5.61,5.98-24.3,10.85-44.87,14.96-37.02,7.48-52.72,16.45-52.72,38.51,0,18.7,9.72,29.54,34.4,29.54Z"/><path class="cls-1" d="m465.83,304.49h-29.91V113.79h29.91v37.77h.75c10.1-25.05,25.42-43,52.72-43,7.11,0,12.34.38,17.58,1.12v29.92c-4.49-.75-7.85-1.12-12.34-1.12-35.15,0-58.71,27.67-58.71,64.31v101.71Z"/><path class="cls-1" d="m789.58,37.14h29.91v267.35h-29.91V37.14Z"/><path class="cls-1" d="m851.39,40.88h35.9v35.9h-35.9v-35.9Zm2.99,72.91h29.91v190.7h-29.91V113.79Z"/><path class="cls-1" d="m1005.19,134.73c-33.65,0-56.09,21.31-56.09,50.85v118.91h-29.91V113.79h29.91v22.81h.75c10.1-13.46,30.29-28.05,62.82-28.05,34.78,0,63.94,19.07,63.94,62.82v133.12h-29.92v-125.64c0-24.68-11.59-44.12-41.5-44.12Z"/><path class="cls-1" d="m1097.16,255.51c0-43.75,32.16-55.71,81.51-64.69,32.53-5.98,47.49-9.72,47.49-28.42,0-14.96-8.22-28.05-39.63-28.05-36.27,0-46.74,10.85-48.61,38.52h-31.41c1.87-36.64,25.05-64.69,81.14-64.69,35.52,0,67.68,14.96,67.68,61.7v91.61c0,14.96,2.25,22.43,9.72,22.43,1.12,0,2.24,0,4.49-.37v20.94c-4.86,1.12-9.35,1.87-14.58,1.87-16.45,0-26.55-6.36-28.42-29.91h-.75c-12.34,20.57-34.03,33.28-65.81,33.28-38.52,0-62.82-22.06-62.82-54.22Zm65.81,28.05c35.9,0,63.19-16.08,63.19-52.72v-30.29c-5.61,5.98-24.3,10.85-44.87,14.96-37.02,7.48-52.72,16.45-52.72,38.51,0,18.7,9.72,29.54,34.4,29.54Z"/><path class="cls-1" d="m654.47,316.8c-64.75,0-117.44-52.68-117.44-117.44s52.68-117.44,117.44-117.44,117.44,52.68,117.44,117.44-52.68,117.44-117.44,117.44Zm0-211.16c-51.68,0-93.72,42.04-93.72,93.72s42.04,93.72,93.72,93.72,93.72-42.04,93.72-93.72-42.04-93.72-93.72-93.72Z"/><rect class="cls-1" x="600.15" y="150.93" width="29.14" height="29.14"/><path class="cls-1" d="m630.13,180.91h-30.83v-30.83h30.83v30.83Zm-29.14-1.69h27.44v-27.44h-27.44v27.44Z"/><rect class="cls-1" x="679.66" y="150.93" width="29.14" height="29.14"/><path class="cls-1" d="m709.64,180.91h-30.83v-30.83h30.83v30.83Zm-29.14-1.69h27.44v-27.44h-27.44v27.44Z"/><path class="cls-1" d="m731.22,197.46l-.07-2.47h-17.48l-2.61.09.07,2.61c.01.56.03,1.12.03,1.67,0,31.26-25.44,56.7-56.7,56.7s-56.68-25.44-56.68-56.7c0-.59.02-1.17.03-1.76l.07-2.61h-20.09l-.07,2.47c-.02.64-.02,1.27-.02,1.9,0,42.32,34.43,76.76,76.76,76.76s76.77-34.43,76.77-76.76c0-.63,0-1.27-.02-1.9Z"/></svg>